<?xml version="1.0" standalone="no"?>
<svg xmlns="http://www.w3.org/2000/svg" xmlns:xlink="http://www.w3.org/1999/xlink" width="278pt" height="332pt" viewBox="0.00 0.00 278.00 332.00">
<g id="graph0" class="graph" transform="translate(36.90923152877269,287.50290952055923) scale(0.7189682664234786)" data-name="">
<polygon fill="white" stroke="none" points="-4,4 -4,-328 274,-328 274,4 -4,4" style=""/>
<!-- 8 -->
<g id="node1" class="node" pointer-events="visible" data-name="8">

<ellipse fill="none" stroke="black" cx="63" cy="-306" rx="27" ry="18" style=""/>
<text text-anchor="middle" x="63" y="-301.8" font-family="Times,serif" font-size="14.00" style="">8</text>
</g>
<!-- 10 -->
<g id="node2" class="node" pointer-events="visible" data-name="10">

<ellipse fill="none" stroke="black" cx="63" cy="-234" rx="27" ry="18" style=""/>
<text text-anchor="middle" x="63" y="-229.8" font-family="Times,serif" font-size="14.00" style="">10</text>
</g>
<!-- 8&#45;&gt;10 -->
<g id="edge1" class="edge" data-name="8-&gt;10">

<path fill="none" stroke="black" d="M63,-287.7C63,-279.98 63,-270.71 63,-262.11" style=""/>
<polygon fill="black" stroke="black" points="66.5,-262.1 63,-252.1 59.5,-262.1 66.5,-262.1" style=""/>
</g>
<!-- 11 -->
<g id="node3" class="node" pointer-events="visible" data-name="11">

<ellipse fill="none" stroke="black" cx="27" cy="-162" rx="27" ry="18" style=""/>
<text text-anchor="middle" x="27" y="-157.8" font-family="Times,serif" font-size="14.00" style="">11</text>
</g>
<!-- 10&#45;&gt;11 -->
<g id="edge2" class="edge" data-name="10-&gt;11">

<path fill="none" stroke="black" d="M54.65,-216.76C50.29,-208.28 44.85,-197.71 39.96,-188.2" style=""/>
<polygon fill="black" stroke="black" points="42.99,-186.44 35.3,-179.15 36.77,-189.64 42.99,-186.44" style=""/>
</g>
<!-- 5 -->
<g id="node4" class="node" pointer-events="visible" data-name="5">

<ellipse fill="none" stroke="black" cx="99" cy="-162" rx="27" ry="18" style=""/>
<text text-anchor="middle" x="99" y="-157.8" font-family="Times,serif" font-size="14.00" style="">5</text>
</g>
<!-- 10&#45;&gt;5 -->
<g id="edge3" class="edge" data-name="10-&gt;5">

<path fill="none" stroke="black" d="M71.35,-216.76C75.71,-208.28 81.15,-197.71 86.04,-188.2" style=""/>
<polygon fill="black" stroke="black" points="89.23,-189.64 90.7,-179.15 83.01,-186.44 89.23,-189.64" style=""/>
</g>
<!-- 12 -->
<g id="node5" class="node" pointer-events="visible" data-name="12">

<ellipse fill="none" stroke="black" cx="27" cy="-90" rx="27" ry="18" style=""/>
<text text-anchor="middle" x="27" y="-85.8" font-family="Times,serif" font-size="14.00" style="">12</text>
</g>
<!-- 11&#45;&gt;12 -->
<g id="edge4" class="edge" data-name="11-&gt;12">

<path fill="none" stroke="black" d="M27,-143.7C27,-135.98 27,-126.71 27,-118.11" style=""/>
<polygon fill="black" stroke="black" points="30.5,-118.1 27,-108.1 23.5,-118.1 30.5,-118.1" style=""/>
</g>
<!-- 3 -->
<g id="node12" class="node" pointer-events="visible" data-name="3">

<ellipse fill="none" stroke="black" cx="171" cy="-90" rx="27" ry="18" style=""/>
<text text-anchor="middle" x="171" y="-85.8" font-family="Times,serif" font-size="14.00" style="">3</text>
</g>
<!-- 5&#45;&gt;3 -->
<g id="edge5" class="edge" data-name="5-&gt;3">

<path fill="none" stroke="black" d="M113.57,-146.83C123.75,-136.94 137.52,-123.55 149.03,-112.36" style=""/>
<polygon fill="black" stroke="black" points="151.47,-114.87 156.2,-105.38 146.59,-109.85 151.47,-114.87" style=""/>
</g>
<!-- 4 -->
<g id="node6" class="node" pointer-events="visible" data-name="4">

<ellipse fill="none" stroke="black" cx="243" cy="-306" rx="27" ry="18" style=""/>
<text text-anchor="middle" x="243" y="-301.8" font-family="Times,serif" font-size="14.00" style="">4</text>
</g>
<!-- 6 -->
<g id="node7" class="node" pointer-events="visible" data-name="6">

<ellipse fill="none" stroke="black" cx="243" cy="-234" rx="27" ry="18" style=""/>
<text text-anchor="middle" x="243" y="-229.8" font-family="Times,serif" font-size="14.00" style="">6</text>
</g>
<!-- 4&#45;&gt;6 -->
<g id="edge6" class="edge" data-name="4-&gt;6">

<path fill="none" stroke="black" d="M243,-287.7C243,-279.98 243,-270.71 243,-262.11" style=""/>
<polygon fill="black" stroke="black" points="246.5,-262.1 243,-252.1 239.5,-262.1 246.5,-262.1" style=""/>
</g>
<!-- 2 -->
<g id="node8" class="node" pointer-events="visible" data-name="2">

<ellipse fill="none" stroke="black" cx="243" cy="-162" rx="27" ry="18" style=""/>
<text text-anchor="middle" x="243" y="-157.8" font-family="Times,serif" font-size="14.00" style="">2</text>
</g>
<!-- 6&#45;&gt;2 -->
<g id="edge7" class="edge" data-name="6-&gt;2">

<path fill="none" stroke="black" d="M243,-215.7C243,-207.98 243,-198.71 243,-190.11" style=""/>
<polygon fill="black" stroke="black" points="246.5,-190.1 243,-180.1 239.5,-190.1 246.5,-190.1" style=""/>
</g>
<!-- 7 -->
<g id="node9" class="node" pointer-events="visible" data-name="7">

<ellipse fill="none" stroke="black" cx="171" cy="-162" rx="27" ry="18" style=""/>
<text text-anchor="middle" x="171" y="-157.8" font-family="Times,serif" font-size="14.00" style="">7</text>
</g>
<!-- 6&#45;&gt;7 -->
<g id="edge8" class="edge" data-name="6-&gt;7">

<path fill="none" stroke="black" d="M228.43,-218.83C218.25,-208.94 204.48,-195.55 192.97,-184.36" style=""/>
<polygon fill="black" stroke="black" points="195.41,-181.85 185.8,-177.38 190.53,-186.87 195.41,-181.85" style=""/>
</g>
<!-- 9 -->
<g id="node10" class="node" pointer-events="visible" data-name="9">

<ellipse fill="none" stroke="black" cx="202" cy="-18" rx="27" ry="18" style=""/>
<text text-anchor="middle" x="202" y="-13.8" font-family="Times,serif" font-size="14.00" style="">9</text>
</g>
<!-- 2&#45;&gt;9 -->
<g id="edge9" class="edge" data-name="2-&gt;9">

<path fill="none" stroke="black" d="M238.14,-144.15C231.11,-119.81 218.04,-74.57 209.7,-45.67" style=""/>
<polygon fill="black" stroke="black" points="212.99,-44.46 206.86,-35.82 206.27,-46.4 212.99,-44.46" style=""/>
</g>
<!-- 7&#45;&gt;3 -->
<g id="edge10" class="edge" data-name="7-&gt;3">

<path fill="none" stroke="black" d="M171,-143.7C171,-135.98 171,-126.71 171,-118.11" style=""/>
<polygon fill="black" stroke="black" points="174.5,-118.1 171,-108.1 167.5,-118.1 174.5,-118.1" style=""/>
</g>
<!-- 1 -->
<g id="node11" class="node" pointer-events="visible" data-name="1">

<ellipse fill="none" stroke="black" cx="171" cy="-234" rx="27" ry="18" style=""/>
<text text-anchor="middle" x="171" y="-229.8" font-family="Times,serif" font-size="14.00" style="">1</text>
</g>
<!-- 1&#45;&gt;2 -->
<g id="edge11" class="edge" data-name="1-&gt;2">

<path fill="none" stroke="black" d="M185.57,-218.83C195.75,-208.94 209.52,-195.55 221.03,-184.36" style=""/>
<polygon fill="black" stroke="black" points="223.47,-186.87 228.2,-177.38 218.59,-181.85 223.47,-186.87" style=""/>
</g>
<!-- 1&#45;&gt;7 -->
<g id="edge12" class="edge" data-name="1-&gt;7">

<path fill="none" stroke="black" d="M171,-215.7C171,-207.98 171,-198.71 171,-190.11" style=""/>
<polygon fill="black" stroke="black" points="174.5,-190.1 171,-180.1 167.5,-190.1 174.5,-190.1" style=""/>
</g>
<!-- 3&#45;&gt;9 -->
<g id="edge13" class="edge" data-name="3-&gt;9">

<path fill="none" stroke="black" d="M178.35,-72.41C182.01,-64.13 186.53,-53.92 190.64,-44.66" style=""/>
<polygon fill="black" stroke="black" points="193.86,-46.03 194.71,-35.47 187.46,-43.2 193.86,-46.03" style=""/>
</g>
</g>
</svg>